<?xml version="1.0" encoding="UTF-8" standalone="no"?>
<!-- Created with Inkscape (http://www.inkscape.org/) -->

<svg
   xmlns:dc="http://purl.org/dc/elements/1.1/"
   xmlns:cc="http://creativecommons.org/ns#"
   xmlns:rdf="http://www.w3.org/1999/02/22-rdf-syntax-ns#"
   xmlns:svg="http://www.w3.org/2000/svg"
   xmlns="http://www.w3.org/2000/svg"
   xmlns:sodipodi="http://sodipodi.sourceforge.net/DTD/sodipodi-0.dtd"
   xmlns:inkscape="http://www.inkscape.org/namespaces/inkscape"
   width="210mm"
   height="297mm"
   viewBox="0 0 210 297"
   version="1.1"
   id="svg8"
   inkscape:version="0.92.4 (5da689c313, 2019-01-14)"
   sodipodi:docname="Logo_001.svg"
   inkscape:export-filename="C:\Philip\Development\Java\Bnotes\Design\Logo_001.png"
   inkscape:export-xdpi="96"
   inkscape:export-ydpi="96">
  <defs
     id="defs2">
    <inkscape:perspective
       sodipodi:type="inkscape:persp3d"
       inkscape:vp_x="31.173933 : -29.50151 : 1"
       inkscape:vp_y="0 : 1000 : 0"
       inkscape:vp_z="254.24619 : -29.50151 : 1"
       inkscape:persp3d-origin="142.71006 : -79.00151 : 1"
       id="perspective4524" />
  </defs>
  <sodipodi:namedview
     id="base"
     pagecolor="#ffffff"
     bordercolor="#666666"
     borderopacity="1.0"
     inkscape:pageopacity="0.0"
     inkscape:pageshadow="2"
     inkscape:zoom="0.49497475"
     inkscape:cx="-158.42079"
     inkscape:cy="505.55788"
     inkscape:document-units="mm"
     inkscape:current-layer="layer1"
     showgrid="false"
     inkscape:window-width="1920"
     inkscape:window-height="1001"
     inkscape:window-x="-9"
     inkscape:window-y="-9"
     inkscape:window-maximized="1" />
  <metadata
     id="metadata5">
    <rdf:RDF>
      <cc:Work
         rdf:about="">
        <dc:format>image/svg+xml</dc:format>
        <dc:type
           rdf:resource="http://purl.org/dc/dcmitype/StillImage" />
        <dc:title></dc:title>
      </cc:Work>
    </rdf:RDF>
  </metadata>
  <g
     inkscape:label="Ebene 1"
     inkscape:groupmode="layer"
     id="layer1">
    <path
       style="fill:#00006e;fill-opacity:1;stroke:#2458f2;stroke-width:2.3;stroke-linecap:butt;stroke-linejoin:round;stroke-miterlimit:4;stroke-dasharray:none;stroke-dashoffset:41.81;stroke-opacity:1;paint-order:normal"
       d="M 102.89894,49.495013 A 97.032272,46.251063 0 0 0 5.8666204,95.745936 97.032272,46.251063 0 0 0 102.89894,141.99686 97.032272,46.251063 0 0 0 199.93126,95.745936 97.032272,46.251063 0 0 0 102.89894,49.495013 Z M 47.775173,72.473456 c 1.852083,0 3.522265,0.157096 5.010547,0.471289 1.504817,0.314193 2.786393,0.785482 3.844726,1.413867 1.058334,0.611849 1.860352,1.35599 2.406055,2.232422 0.562239,0.876432 0.843359,1.852083 0.843359,2.926953 0,1.504818 -0.314192,2.844271 -0.942578,4.01836 -0.628385,1.174088 -1.620573,2.273763 -2.976562,3.299023 -1.504818,1.124479 -2.926953,1.86862 -4.266407,2.232422 -0.148828,0.04961 -0.405143,0.09922 -0.768945,0.148828 v 0.124023 c 5.804297,0.744141 8.706445,3.141927 8.706445,7.19336 0,0.810286 -0.14056,1.653645 -0.421679,2.530078 -0.264584,0.876432 -0.661459,1.736329 -1.190625,2.579689 -0.51263,0.84336 -1.132748,1.6123 -1.860352,2.30683 -1.570963,1.53789 -3.439583,2.9683 -5.605859,4.29122 -2.14974,1.32291 -4.316016,2.38951 -6.498828,3.1998 -2.182813,0.81029 -4.051432,1.21543 -5.605859,1.21543 -1.306381,0 -2.563151,-0.14883 -3.770313,-0.44649 -1.190625,-0.29765 -2.141471,-0.69453 -2.852539,-1.19062 -0.711068,-0.47956 -1.066602,-1.00046 -1.066602,-1.5627 0,-0.51263 0.14056,-0.99218 0.42168,-1.43867 0.297656,-0.44648 0.835091,-1.00045 1.612305,-1.66191 l -0.09922,-0.0992 c -0.446484,0.16536 -0.8847,0.24805 -1.314648,0.24805 -0.909506,0 -1.645378,-0.26459 -2.207617,-0.79375 -0.56224,-0.52917 -0.84336,-1.24851 -0.84336,-2.15801 0,-0.51263 0.231511,-1.70326 0.694531,-3.571876 0.463021,-1.885156 1.008724,-3.82819 1.63711,-5.829101 l 2.902148,-8.929688 c 0.56224,-1.604036 1.240234,-3.166731 2.033984,-4.688086 -0.08268,0.01654 -0.272851,0.107487 -0.570507,0.272852 -1.141016,0.463021 -1.951302,0.694531 -2.43086,0.694531 -0.677994,0 -1.016992,-0.256315 -1.016992,-0.768945 0,-0.545703 0.264583,-1.331185 0.79375,-2.356445 0.529167,-1.025261 1.058333,-1.794206 1.5875,-2.306836 1.207162,-1.107943 3.042708,-1.984375 5.506641,-2.629297 2.480468,-0.644922 5.250325,-0.967383 8.30957,-0.967383 z m 80.416797,0.644922 c 0.66146,0 1.16582,0.148828 1.51308,0.446484 0.34727,0.297657 0.5209,0.727605 0.5209,1.289844 0,0.380339 -0.24804,1.157552 -0.74414,2.331641 -0.84336,1.951302 -1.47174,3.77858 -1.88515,5.481836 0.28112,0.03307 0.55397,0.08268 0.81855,0.148828 0.99219,0.148828 1.64538,0.322461 1.95957,0.520898 0.31419,0.181901 0.47129,0.520899 0.47129,1.016992 0,0.876433 -0.22324,1.686719 -0.66973,2.43086 -0.44648,0.74414 -1.03352,1.289843 -1.76113,1.637109 -0.5457,0.248047 -1.4304,0.413411 -2.6541,0.496094 -0.21497,0.644922 -0.45475,1.529622 -0.71934,2.654101 -0.14882,0.992188 -0.31419,2.364714 -0.49609,4.117578 -0.0992,0.644922 -0.14883,1.248503 -0.14883,1.810742 0,2.612765 1.26504,3.919145 3.79512,3.919145 h 0.14883 0.0744 c 0.29766,0 0.44649,0.0496 0.44649,0.14882 0,0.26459 -0.28112,0.71107 -0.84336,1.33946 -0.56224,0.62838 -1.18236,1.18235 -1.86036,1.66191 -0.7276,0.4961 -1.52135,0.89297 -2.38125,1.19063 -0.85989,0.29765 -1.6371,0.44648 -2.33164,0.44648 -1.73632,0 -3.15019,-0.58704 -4.2416,-1.76113 -1.07487,-1.17409 -1.6123,-2.72852 -1.6123,-4.663283 0,-0.826823 0.14056,-1.909961 0.42168,-3.249414 0.29765,-1.339453 0.75241,-3.133659 1.36426,-5.382617 0.0992,-0.396875 0.2067,-0.810287 0.32246,-1.240235 0.11575,-0.446484 0.1819,-0.711067 0.19843,-0.79375 -0.66145,-0.01654 -1.13274,-0.157096 -1.41386,-0.421679 -0.28112,-0.264584 -0.42168,-0.694532 -0.42168,-1.289844 0,-1.041797 0.39687,-2.025716 1.19062,-2.951758 0.81029,-0.926042 1.75287,-1.504818 2.82774,-1.736328 l 0.0992,-0.297656 c 1.09141,-3.075782 2.03399,-5.242058 2.82774,-6.498828 0.38034,-0.595313 0.9095,-1.12448 1.5875,-1.5875 1.27331,-0.810287 2.4722,-1.21543 3.59668,-1.21543 z m -81.533008,4.737695 c -0.661458,0 -1.149284,0.09922 -1.463477,0.297656 l -3.199804,10.864453 c 0.198437,0.03307 0.396875,0.04961 0.595312,0.04961 0.876433,0 1.893425,-0.405143 3.050977,-1.21543 1.455208,-1.008724 2.579687,-2.083594 3.373437,-3.224609 0.810287,-1.157552 1.21543,-2.282031 1.21543,-3.373438 0,-2.265494 -1.190625,-3.398242 -3.571875,-3.398242 z m 57.670898,3.894336 c 2.46393,0 3.6959,0.289388 3.6959,0.868164 0,0.661458 -0.55397,1.016992 -1.66192,1.066602 -1.33945,0.08268 -2.58795,0.463021 -3.7455,1.141015 -1.15756,0.677995 -2.19108,1.604037 -3.10059,2.778125 -0.892968,1.174089 -1.595768,2.497005 -2.108398,3.96875 -0.496094,1.471745 -0.744141,3.026172 -0.744141,4.663281 0,1.802474 0.42168,3.257683 1.265039,4.365624 0.84336,1.09141 1.943034,1.63711 3.29902,1.63711 1.25677,0 2.35645,-0.64492 3.29903,-1.93476 0.94258,-1.289849 1.41386,-2.794666 1.41386,-4.514458 0,-1.405599 -0.29765,-2.720247 -0.89296,-3.943945 -0.57878,-1.240235 -1.43041,-2.282031 -2.55489,-3.125391 -0.47955,-0.380338 -0.71933,-0.65319 -0.71933,-0.818554 0,-0.231511 0.33899,-0.587045 1.01699,-1.066602 0.76068,-0.51263 1.6123,-0.942578 2.55488,-1.289844 0.94258,-0.347265 1.73633,-0.520898 2.38125,-0.520898 0.74414,0 1.44694,0.198437 2.1084,0.595312 0.678,0.380339 1.27331,0.93431 1.78594,1.661914 0.51263,0.711068 0.90123,1.537891 1.16582,2.480469 0.28112,0.926042 0.42168,1.918229 0.42168,2.976563 0,1.752864 -0.33073,3.489192 -0.99219,5.208984 -0.66146,1.703255 -1.52962,3.08405 -2.60449,4.14238 -1.38906,1.33946 -3.06751,2.43913 -5.03535,3.29903 -1.95131,0.84336 -3.81166,1.26504 -5.581058,1.26504 -1.719792,0 -3.431315,-0.29766 -5.13457,-0.89297 -1.686719,-0.59532 -3.026172,-1.3808 -4.01836,-2.35645 -1.322916,-1.32292 -1.984375,-3.1998 -1.984375,-5.630663 0,-1.918229 0.471289,-3.836458 1.413868,-5.754687 0.942578,-1.91823 2.215885,-3.654558 3.819921,-5.208985 1.620573,-1.570963 3.398243,-2.802929 5.333008,-3.695898 1.951306,-0.909505 3.919136,-1.364258 5.903516,-1.364258 z m 43.55703,0.818555 c 1.55443,0 2.76986,0.496094 3.64629,1.488281 0.89297,0.975651 1.33945,2.323372 1.33945,4.043164 0,1.339453 -0.35553,2.736784 -1.0666,4.191992 -0.69453,1.455208 -1.72806,2.852539 -3.10058,4.191992 -1.12448,1.124479 -2.23243,2.000912 -3.32383,2.629297 -1.07487,0.628386 -2.01745,0.94258 -2.82774,0.94258 -0.3638,0 -0.73587,-0.09095 -1.11621,-0.272853 0.1819,0.992183 0.82682,1.488283 1.93477,1.488283 1.24023,0 2.85254,-0.72761 4.83691,-2.182815 1.15755,-0.843359 1.93477,-1.265039 2.33164,-1.265039 0.4961,0 0.95912,0.132292 1.38906,0.396875 0.42995,0.264584 0.64493,0.537435 0.64493,0.818555 0,0.297656 -0.23978,0.686263 -0.71934,1.165824 -0.87643,0.87643 -1.88516,1.73632 -3.02617,2.57968 -1.14102,0.82683 -2.24069,1.52136 -3.29902,2.0836 -1.05834,0.5457 -2.11667,0.98392 -3.175,1.31465 -1.05834,0.31419 -2.00092,0.47129 -2.82774,0.47129 -2.06706,0 -3.7207,-0.58705 -4.96094,-1.76114 -1.24023,-1.19062 -1.86035,-2.76985 -1.86035,-4.73769 0,-1.504821 0.32246,-3.199808 0.96738,-5.084964 0.66146,-1.901693 1.54616,-3.679362 2.65411,-5.333008 1.30638,-1.934765 2.91041,-3.54707 4.81211,-4.836914 2.34817,-1.554427 4.59713,-2.33164 6.74687,-2.33164 z m 21.38164,0.09922 c 1.05833,0 2.05052,0.248046 2.97656,0.74414 0.92604,0.496094 1.66192,1.157552 2.20762,1.984375 0.5457,0.810287 0.81856,1.694987 0.81856,2.654102 0,0.942578 -0.29766,1.918229 -0.89297,2.926953 -0.59532,1.008724 -1.34773,1.852083 -2.25723,2.530078 -0.89297,0.661458 -1.7446,0.992187 -2.55488,0.992187 -0.46302,0 -0.86817,-0.09922 -1.21543,-0.297656 -0.33073,-0.198437 -0.4961,-0.413411 -0.4961,-0.644922 0,-0.23151 0.0661,-0.570508 0.19844,-1.016992 0.3638,-1.422135 0.5457,-2.66237 0.5457,-3.720703 0,-1.041797 -0.31419,-2.025716 -0.94257,-2.951758 -0.81029,0.56224 -1.33946,1.008724 -1.5875,1.339453 -0.62839,0.727604 -1.11621,1.554427 -1.46348,2.480469 -0.38034,0.942578 -0.57051,1.835547 -0.57051,2.678906 0,0.595313 0.13229,1.07487 0.39688,1.438672 0.28112,0.347266 0.7276,0.644922 1.33945,0.892969 0.62839,0.248047 1.57096,0.520898 2.82773,0.818555 2.10013,0.51263 3.58015,1.008723 4.44004,1.488281 0.19844,0.115755 0.50437,0.355534 0.91778,0.719336 0.62838,0.677994 0.94257,1.554427 0.94257,2.629291 0,1.14102 -0.35553,2.29857 -1.0666,3.47266 -0.71106,1.15755 -1.81074,2.35645 -3.29902,3.59668 -1.5875,1.33945 -3.16673,2.29857 -4.7377,2.87734 -1.57096,0.57878 -3.30729,0.86817 -5.20898,0.86817 -1.83555,0 -3.28249,-0.3638 -4.34082,-1.09141 -1.0418,-0.7276 -1.5627,-1.71979 -1.5627,-2.97656 0,-0.89297 0.34727,-1.79421 1.0418,-2.70371 0.69453,-0.92604 1.55443,-1.67845 2.57969,-2.25723 1.0418,-0.57877 2.05879,-0.86816 3.05098,-0.86816 0.74414,0 1.11621,0.16536 1.11621,0.49609 0,0.16537 -0.10749,0.43822 -0.32246,0.81856 -0.64493,1.15755 -0.96739,2.22415 -0.96739,3.1998 0,0.69453 0.25632,1.35599 0.76895,1.98438 0.97565,-0.0496 1.86035,-0.5209 2.6541,-1.41387 0.81029,-0.90951 1.21543,-1.89343 1.21543,-2.95176 0,-0.7276 -0.23978,-1.30638 -0.71934,-1.73633 -0.51263,-0.51263 -1.66191,-1.01699 -3.44785,-1.51308 -2.6293,-0.760679 -4.34082,-1.612307 -5.13457,-2.554885 -0.74414,-0.760677 -1.11621,-1.670182 -1.11621,-2.728515 0,-1.901693 0.68626,-3.803386 2.05879,-5.705078 1.38906,-1.901693 3.15846,-3.45612 5.3082,-4.663282 2.14974,-1.223698 4.31602,-1.835546 6.49883,-1.835546 z m -98.400193,0.471289 c 1.719791,0 2.579687,1.116211 2.579687,3.348632 0,1.63711 -0.338997,3.977019 -1.016992,7.019727 l 0.09922,0.09922 1.488281,-1.736329 c 1.504818,-1.670182 2.695443,-2.910416 3.571875,-3.720703 0.892969,-0.826822 1.686719,-1.422135 2.38125,-1.785937 0.711068,-0.363802 1.430403,-0.545703 2.158008,-0.545703 1.174088,0 2.000911,0.314193 2.480468,0.942578 0.479558,0.628385 0.719336,1.719792 0.719336,3.274219 0,0.644922 -0.06615,1.595768 -0.198437,2.852539 -0.198438,1.670182 -0.297656,3.241145 -0.297656,4.71289 0,1.653646 0.08268,2.993094 0.248046,4.018354 0.115756,0.62839 0.289388,1.25677 0.520899,1.88516 0.165364,0.59531 0.248047,1.00046 0.248047,1.21543 0,0.26458 -0.09922,0.47129 -0.297657,0.62012 -0.51263,0.44648 -1.190624,0.83509 -2.033984,1.16582 -0.843359,0.33073 -1.554427,0.49609 -2.133203,0.49609 -0.942578,0 -1.802474,-0.32246 -2.579687,-0.96738 -0.760678,-0.64492 -1.35599,-1.53789 -1.785938,-2.67891 -0.413411,-1.14101 -0.620117,-2.43086 -0.620117,-3.869528 0,-0.959114 0.09922,-2.091861 0.297656,-3.398242 l -0.09922,-0.09922 c -0.711067,0.79375 -1.289843,1.422135 -1.736328,1.885156 -0.429948,0.463021 -0.835091,0.901237 -1.215429,1.314648 -1.852084,2.116666 -3.423047,4.026626 -4.712891,5.729886 -0.496094,0.66146 -0.950846,1.24023 -1.364258,1.73633 -0.611849,0.61184 -1.30638,0.91777 -2.083593,0.91777 -1.058334,0 -1.91823,-0.39688 -2.579688,-1.19063 -0.661458,-0.79375 -0.992187,-1.81901 -0.992187,-3.07578 0,-0.77721 0.09095,-1.72806 0.272851,-2.85254 0.181901,-1.124476 0.42168,-2.323369 0.719336,-3.596676 0.314193,-1.289844 0.677995,-2.612761 1.091406,-3.96875 0.429948,-1.35599 0.892969,-2.645834 1.389063,-3.869532 0.760677,-2.033984 1.686719,-3.621484 2.778125,-4.762499 0.74414,-0.744141 1.645377,-1.116211 2.703711,-1.116211 z m 74.934963,3.050976 c -0.52917,0 -1.33946,1.16582 -2.43086,3.497461 -0.64492,1.405599 -1.17409,2.811198 -1.5875,4.216797 -0.39688,1.389062 -0.59532,2.587956 -0.59532,3.596679 0,0.347266 0.0662,0.84336 0.19844,1.488282 0.76068,-0.51263 1.33946,-1.025261 1.73633,-1.537891 0.87643,-1.07487 1.55443,-2.306836 2.03398,-3.695898 0.38034,-0.909505 0.678,-1.926498 0.89297,-3.050977 0.21498,-1.124479 0.32246,-2.174544 0.32246,-3.150195 0,-0.909505 -0.19016,-1.364258 -0.5705,-1.364258 z m -104.328518,4.71289 c -0.06614,0.214974 -0.132291,0.454752 -0.198437,0.719336 -0.06615,0.264583 -0.132292,0.51263 -0.198438,0.74414 -0.777213,2.629297 -1.496549,4.7625 -2.158007,6.39961 -0.644922,1.637105 -1.331185,3.026175 -2.058789,4.167185 -0.413412,0.69453 -1.008724,1.43041 -1.785938,2.20762 2.000911,0.61185 3.423047,1.00872 4.266406,1.19062 0.859896,0.18191 1.711524,0.27286 2.554883,0.27286 0.975651,0 1.835547,-0.14056 2.579688,-0.42168 0.760677,-0.29766 1.471744,-0.76895 2.133203,-1.41387 0.975651,-0.95912 1.769401,-2.10013 2.38125,-3.42305 0.611849,-1.32291 0.917773,-2.60449 0.917773,-3.844725 0,-1.355989 -0.471289,-2.505273 -1.413867,-3.447851 -0.463021,-0.463021 -0.983919,-0.818555 -1.562695,-1.066602 -0.56224,-0.248046 -1.347722,-0.454752 -2.356446,-0.620117 -0.926041,-0.181901 -1.570963,-0.355534 -1.934765,-0.520898 -0.363802,-0.165365 -0.752409,-0.479557 -1.165821,-0.942578 z"
       id="path4554"
       inkscape:connector-curvature="0" />
    <text
       xml:space="preserve"
       style="font-style:normal;font-weight:normal;font-size:10.58333302px;line-height:1.25;font-family:sans-serif;letter-spacing:0px;word-spacing:0px;fill:#000000;fill-opacity:1;stroke:none;stroke-width:0.26458332"
       x="121.34036"
       y="71.959061"
       id="text4558"><tspan
         sodipodi:role="line"
         id="tspan4556"
         x="121.34036"
         y="81.32283"
         style="stroke-width:0.26458332" /></text>
  </g>
</svg>
